<svg xmlns="http://www.w3.org/2000/svg" version="1.1" xmlns:xlink="http://www.w3.org/1999/xlink" xmlns:svgjs="http://svgjs.dev/svgjs" width="1000" height="247" viewBox="0 0 1000 247"><g transform="matrix(1,0,0,1,-0.6060606060606233,-0.20893877234189517)"><svg viewBox="0 0 396 98" data-background-color="#051726" preserveAspectRatio="xMidYMid meet" height="247" width="1000" xmlns="http://www.w3.org/2000/svg" xmlns:xlink="http://www.w3.org/1999/xlink"><g id="tight-bounds" transform="matrix(1,0,0,1,0.2400000000000091,0.08289878416803731)"><svg viewBox="0 0 395.52 97.83395158058485" height="97.83395158058485" width="395.52"><g><svg viewBox="0 0 544.5150259921626 134.68865465164376" height="97.83395158058485" width="395.52"><g transform="matrix(1,0,0,1,148.99502599216257,39.25475050570487)"><svg viewBox="0 0 395.52 56.17915364023402" height="56.17915364023402" width="395.52"><g id="textblocktransform"><svg viewBox="0 0 395.52 56.17915364023402" height="56.17915364023402" width="395.52" id="textblock"><g><svg viewBox="0 0 395.52 30.300351032122748" height="30.300351032122748" width="395.52"><g transform="matrix(1,0,0,1,0,0)"><svg width="395.52" viewBox="1.75 -34.25 448.12 34.7" height="30.300351032122748" data-palette-color="#ffffff"><g class="wordmark-text-0" data-fill-palette-color="primary" id="text-0"><path d="M18.25 0.45L18.25 0.45Q13.3 0.45 9.6-1.85 5.9-4.15 3.83-8.1 1.75-12.05 1.75-17L1.75-17Q1.75-20.85 3.03-24 4.3-27.15 6.55-29.45 8.8-31.75 11.8-33 14.8-34.25 18.25-34.25L18.25-34.25Q23.05-34.25 26.78-32.08 30.5-29.9 32.65-26.03 34.8-22.15 34.8-17L34.8-17Q34.8-13.3 33.6-10.13 32.4-6.95 30.18-4.58 27.95-2.2 24.93-0.88 21.9 0.45 18.25 0.45ZM19.25-2L19.25-2Q22.5-2 24.83-3.83 27.15-5.65 28.4-8.78 29.65-11.9 29.65-15.7L29.65-15.7Q29.65-20.2 28.03-23.88 26.4-27.55 23.6-29.7 20.8-31.85 17.2-31.85L17.2-31.85Q14.25-31.85 11.93-30.18 9.6-28.5 8.25-25.45 6.9-22.4 6.9-18.35L6.9-18.35Q6.9-15.2 7.7-12.25 8.5-9.3 10.08-7 11.65-4.7 13.95-3.35 16.25-2 19.25-2ZM61.4 0.45L61.4 0.45Q60.4-1.2 59.75-2.33 59.1-3.45 58.6-4.42 58.1-5.4 57.45-6.55L57.45-6.55Q56.5-8.35 55.6-9.8 54.7-11.25 53.52-12.75 52.35-14.25 50.6-16.05L50.6-16.05 51.9-15.4Q50.6-15.35 49.5-15.35 48.4-15.35 47.4-15.4L47.4-15.4 47.4-17.75Q48.1-17.65 48.7-17.6 49.3-17.55 49.95-17.55L49.95-17.55Q52.7-17.55 54.9-18.32 57.1-19.1 58.4-20.75 59.7-22.4 59.7-25L59.7-25Q59.7-27.95 57.82-29.83 55.95-31.7 51.45-31.7L51.45-31.7Q50.3-31.7 49.4-31.6 48.5-31.5 47.5-31.25L47.5-31.25 47.75-31.8 47.75-6.35Q47.75-4.7 48.05-3.78 48.35-2.85 49.07-2.48 49.8-2.1 51.05-2L51.05-2Q51.2-1.55 51.25-0.98 51.3-0.4 51.3 0.15L51.3 0.15Q50.25 0.05 49.1 0.03 47.95 0 46.97 0 46 0 45.35 0L45.35 0Q44.05 0 42.27 0.03 40.5 0.05 39.35 0.15L39.35 0.15Q39.35-0.4 39.4-0.95 39.45-1.5 39.6-2L39.6-2Q40.95-2.1 41.7-2.48 42.45-2.85 42.75-3.78 43.05-4.7 43.05-6.35L43.05-6.35 43.05-27.45Q43.05-29.15 42.75-30.08 42.45-31 41.7-31.4 40.95-31.8 39.6-31.8L39.6-31.8Q39.45-32.3 39.4-32.8 39.35-33.3 39.35-33.9L39.35-33.9Q40.1-33.85 41.85-33.83 43.6-33.8 45.35-33.8L45.35-33.8Q47.4-33.8 49.5-33.85 51.6-33.9 53.7-33.9L53.7-33.9Q57.5-33.9 59.9-32.8 62.3-31.7 63.45-29.8 64.6-27.9 64.6-25.5L64.6-25.5Q64.6-23.2 63.5-21.33 62.4-19.45 60.37-18.18 58.35-16.9 55.55-16.25L55.55-16.25 55.8-16.85Q57.2-15.4 58.17-14.1 59.15-12.8 60.2-11.15 61.25-9.5 62.7-7L62.7-7Q63.75-5.25 64.57-4.23 65.4-3.2 66.5-2.73 67.6-2.25 69.45-2.15L69.45-2.15Q69.45-1.55 69.42-1.05 69.4-0.55 69.25 0L69.25 0Q67.4 0 65.32 0.08 63.25 0.15 61.4 0.45ZM88.65-34.1L88.65-34.1 100.55-6.8Q101.4-4.95 101.95-3.95 102.5-2.95 103.07-2.55 103.65-2.15 104.4-2L104.4-2Q104.59-1.35 104.65-0.9 104.7-0.45 104.7 0.15L104.7 0.15Q104.2 0.1 103.15 0.08 102.09 0.05 100.95 0.03 99.8 0 99 0L99 0Q98.4 0 97.59 0.03 96.8 0.05 95.95 0.08 95.09 0.1 94.42 0.13 93.75 0.15 93.34 0.15L93.34 0.15Q93.34-0.45 93.42-1 93.5-1.55 93.7-2L93.7-2Q95.75-2.25 96.12-2.93 96.5-3.6 95.5-5.9L95.5-5.9 88.55-22.15Q87.9-23.7 87.4-24.9 86.9-26.1 86.2-27.95L86.2-27.95 86.45-27.95Q85.84-26.05 85.37-24.73 84.9-23.4 84.45-22.2L84.45-22.2 78.75-7.35Q77.65-4.4 78.07-3.28 78.5-2.15 80.55-2L80.55-2Q80.75-1.55 80.82-1 80.9-0.45 80.9 0.15L80.9 0.15Q80.34 0.1 79.55 0.08 78.75 0.05 77.87 0.03 77 0 76.15 0L76.15 0Q74.9 0 73.8 0.05 72.7 0.1 72 0.15L72 0.15Q72-0.35 72.07-0.93 72.15-1.5 72.34-1.95L72.34-1.95Q73.25-2.15 73.84-2.65 74.45-3.15 75.02-4.28 75.59-5.4 76.34-7.35L76.34-7.35 86.7-33.9Q87.2-34 87.62-34.05 88.05-34.1 88.65-34.1ZM80.34-13.25L93.2-13.25 93.65-11Q90.3-11 86.47-10.95 82.65-10.9 79.55-10.8L79.55-10.8 80.34-13.25ZM135.74-7.5L135.64 0.3 112.24-30.25Q111.54-31.15 110.89-31.43 110.24-31.7 108.99-31.8L108.99-31.8Q108.84-32.35 108.79-32.95 108.74-33.55 108.74-33.95L108.74-33.95Q109.24-33.9 109.87-33.88 110.49-33.85 111.17-33.83 111.84-33.8 112.44-33.8L112.44-33.8Q113.39-33.8 114.27-33.85 115.14-33.9 115.79-33.95L115.79-33.95 135.74-7.5ZM108.74 0.15L108.74 0.15Q108.74-0.5 108.79-1.03 108.84-1.55 108.99-2L108.99-2Q110.34-2 111.09-2.65 111.84-3.3 112.14-4.93 112.44-6.55 112.44-9.35L112.44-9.35 112.44-30.5 114.99-30.5 114.99-9.35Q114.99-6.55 115.29-4.93 115.59-3.3 116.34-2.65 117.09-2 118.44-2L118.44-2Q118.59-1.55 118.64-1.05 118.69-0.55 118.69 0.15L118.69 0.15Q117.94 0.1 117.07 0.08 116.19 0.05 115.34 0.03 114.49 0 113.74 0L113.74 0Q113.04 0 112.09 0.03 111.14 0.05 110.27 0.08 109.39 0.1 108.74 0.15ZM135.64 0.3L135.64 0.3 135.24-4.7 135.24-24.7Q135.24-27.45 134.94-28.98 134.64-30.5 133.89-31.15 133.14-31.8 131.79-31.8L131.79-31.8Q131.64-32.65 131.59-33.08 131.54-33.5 131.54-33.95L131.54-33.95Q132.29-33.9 133.09-33.88 133.89-33.85 134.72-33.83 135.54-33.8 136.24-33.8L136.24-33.8Q137.29-33.8 138.64-33.85 139.99-33.9 140.99-33.95L140.99-33.95Q140.99-33.45 140.94-32.9 140.89-32.35 140.74-31.8L140.74-31.8Q139.64-31.8 138.99-31.15 138.34-30.5 138.07-28.98 137.79-27.45 137.79-24.7L137.79-24.7 137.79 0Q137.39 0.15 136.79 0.23 136.19 0.3 135.64 0.3Z" fill="#ffffff" data-fill-palette-color="primary"></path><path d="M152.24-33.95L152.24-33.95Q152.84-33.9 153.56-33.88 154.29-33.85 155.06-33.83 155.84-33.8 156.56-33.8 157.29-33.8 157.89-33.8L157.89-33.8Q158.69-33.8 159.74-33.83 160.79-33.85 161.91-33.88 163.04-33.9 163.94-33.95L163.94-33.95Q163.94-33.55 163.89-32.98 163.84-32.4 163.69-31.8L163.69-31.8Q161.94-31.7 161.16-31.35 160.39-31 160.49-29.95 160.59-28.9 161.34-26.65L161.34-26.65Q162.34-23.6 163.46-20.05 164.59-16.5 165.69-12.93 166.79-9.35 167.69-6.25L167.69-6.25 166.59-6.25 175.99-33.95Q176.39-34.1 176.89-34.15 177.39-34.2 178.19-34.2L178.19-34.2Q179.84-29.9 181.59-25.1 183.34-20.3 185.06-15.53 186.79-10.75 188.29-6.4L188.29-6.4 187.29-6.4 193.04-24.7Q194.19-28.45 193.64-29.98 193.09-31.5 190.64-31.8L190.64-31.8Q190.44-32.3 190.36-32.93 190.29-33.55 190.29-33.95L190.29-33.95Q191.34-33.9 192.56-33.85 193.79-33.8 195.14-33.8L195.14-33.8Q196.29-33.8 197.59-33.85 198.89-33.9 199.89-33.95L199.89-33.95Q199.89-33.45 199.81-32.9 199.74-32.35 199.54-31.8L199.54-31.8Q198.69-31.6 198.06-30.95 197.44-30.3 196.84-28.8 196.24-27.3 195.34-24.55L195.34-24.55 187.54 0.15Q187.14 0.3 186.61 0.38 186.09 0.45 185.54 0.45L185.54 0.45Q184.04-3.85 182.34-8.5 180.64-13.15 178.91-17.82 177.19-22.5 175.54-26.75L175.54-26.75 175.99-26.75 166.99 0.15Q166.74 0.25 166.36 0.33 165.99 0.4 165.61 0.43 165.24 0.45 164.84 0.45L164.84 0.45Q162.84-6.2 160.74-12.85 158.64-19.5 156.44-26.05L156.44-26.05Q155.54-28.75 154.99-29.9 154.44-31.05 153.91-31.38 153.39-31.7 152.49-31.8L152.49-31.8Q152.34-32.3 152.29-32.88 152.24-33.45 152.24-33.95ZM203.94-33.95L203.94-33.95Q204.69-33.9 205.81-33.88 206.94-33.85 208.19-33.83 209.44-33.8 210.56-33.8 211.69-33.8 212.34-33.8L212.34-33.8 212.34-6.9Q212.34-5.05 212.69-4.05 213.04-3.05 214.04-2.65 215.04-2.25 216.89-2.25L216.89-2.25 216.89 0Q215.49 0 213.66 0 211.84 0 209.96 0.03 208.09 0.05 206.49 0.08 204.89 0.1 203.94 0.15L203.94 0.15Q203.94-0.55 203.99-1.07 204.04-1.6 204.19-2L204.19-2Q205.54-2.1 206.29-2.5 207.04-2.9 207.34-3.93 207.64-4.95 207.64-6.9L207.64-6.9 207.64-27.45Q207.64-29.15 207.34-30.05 207.04-30.95 206.29-31.35 205.54-31.75 204.19-31.8L204.19-31.8Q204.04-32.2 203.99-32.77 203.94-33.35 203.94-33.95ZM226.94-8.55L226.94-8.55Q227.69-8.35 228.19-8.08 228.69-7.8 229.14-7.35L229.14-7.35Q228.59-5.65 228.21-3.65 227.84-1.65 227.59 0.1L227.59 0.1Q226.64 0.05 225.01 0.05 223.39 0.05 221.31 0.03 219.24 0 216.89 0L216.89 0 216.89-2.25 217.19-2.25Q220.79-2.25 222.61-2.98 224.44-3.7 225.34-5.1 226.24-6.5 226.94-8.55ZM223.44-22.5L223.44-22.5Q223.39-21.25 223.36-19.8 223.34-18.35 223.34-17.05L223.34-17.05Q223.34-15.75 223.36-14.15 223.39-12.55 223.44-11.25L223.44-11.25Q222.79-11.25 222.24-11.3 221.69-11.35 221.14-11.5L221.14-11.5Q220.94-14.1 219.76-15.03 218.59-15.95 215.49-15.95L215.49-15.95 211.89-15.95 211.89-18.1 215.49-18.1Q218.59-18.1 219.79-18.9 220.99-19.7 221.04-22.15L221.04-22.15Q221.69-22.35 222.24-22.43 222.79-22.5 223.44-22.5ZM226.39-33.95L226.39-33.95Q226.49-32.85 226.64-31.4 226.79-29.95 226.99-28.55 227.19-27.15 227.44-26.05L227.44-26.05Q227.04-25.7 226.46-25.58 225.89-25.45 225.19-25.45L225.19-25.45Q225.09-27 224.39-28.45 223.69-29.9 221.96-30.85 220.24-31.8 216.99-31.8L216.99-31.8 211.29-31.8 212.34-33.8Q216.29-33.8 219.11-33.83 221.94-33.85 223.76-33.9 225.59-33.95 226.39-33.95ZM234.03-33.95L234.03-33.95Q235.03-33.9 236.46-33.85 237.88-33.8 239.23-33.8L239.23-33.8Q240.43-33.8 241.63-33.83 242.83-33.85 244.03-33.88 245.23-33.9 246.38-33.9L246.38-33.9Q249.28-33.9 251.68-33.3 254.08-32.7 255.56-31.13 257.03-29.55 257.03-26.6L257.03-26.6Q257.03-23.4 255.08-21.13 253.13-18.85 249.78-18.35L249.78-18.35Q252.43-18.2 254.66-17.38 256.88-16.55 258.23-14.75 259.58-12.95 259.58-9.85L259.58-9.85Q259.58-7.15 258.36-4.9 257.13-2.65 254.48-1.33 251.83 0 247.58 0L247.58 0Q246.18 0 244.26 0 242.33 0 240.33 0.03 238.33 0.05 236.63 0.08 234.93 0.1 233.98 0.15L233.98 0.15Q233.98-0.55 234.03-1.07 234.08-1.6 234.23-2L234.23-2Q235.58-2.1 236.33-2.5 237.08-2.9 237.41-3.93 237.73-4.95 237.73-6.9L237.73-6.9 237.73-27.45Q237.73-29.15 237.43-30.05 237.13-30.95 236.38-31.35 235.63-31.75 234.28-31.8L234.28-31.8Q234.13-32.2 234.08-32.77 234.03-33.35 234.03-33.95ZM241.73-31.3L242.43-32.05 242.43-6.9Q242.43-4.85 242.81-3.83 243.18-2.8 244.21-2.48 245.23-2.15 247.08-2.15L247.08-2.15Q250.78-2.15 252.51-4.03 254.23-5.9 254.23-9.15L254.23-9.15Q254.23-11.5 253.28-12.98 252.33-14.45 250.76-15.23 249.18-16 247.31-16.3 245.43-16.6 243.58-16.6L243.58-16.6 241.83-16.6 241.83-18.75 243.98-18.75Q247.23-18.75 248.93-19.65 250.63-20.55 251.28-22.03 251.93-23.5 251.93-25.1L251.93-25.1Q251.93-27.7 250.76-29.13 249.58-30.55 247.86-31.13 246.13-31.7 244.48-31.7L244.48-31.7Q243.83-31.7 243.21-31.63 242.58-31.55 241.73-31.3L241.73-31.3Z" fill="#81ffd9" data-fill-palette-color="secondary"></path><path d="M272.43-33.95L272.43-33.95Q273.43-33.9 274.85-33.85 276.28-33.8 277.63-33.8L277.63-33.8Q278.83-33.8 280.03-33.83 281.23-33.85 282.43-33.88 283.63-33.9 284.78-33.9L284.78-33.9Q287.68-33.9 290.08-33.3 292.48-32.7 293.95-31.13 295.43-29.55 295.43-26.6L295.43-26.6Q295.43-23.4 293.48-21.13 291.53-18.85 288.18-18.35L288.18-18.35Q290.83-18.2 293.05-17.38 295.28-16.55 296.63-14.75 297.98-12.95 297.98-9.85L297.98-9.85Q297.98-7.15 296.75-4.9 295.53-2.65 292.88-1.33 290.23 0 285.98 0L285.98 0Q284.58 0 282.65 0 280.73 0 278.73 0.03 276.73 0.05 275.03 0.08 273.33 0.1 272.38 0.15L272.38 0.15Q272.38-0.55 272.43-1.07 272.48-1.6 272.63-2L272.63-2Q273.98-2.1 274.73-2.5 275.48-2.9 275.8-3.93 276.13-4.95 276.13-6.9L276.13-6.9 276.13-27.45Q276.13-29.15 275.83-30.05 275.53-30.95 274.78-31.35 274.03-31.75 272.68-31.8L272.68-31.8Q272.53-32.2 272.48-32.77 272.43-33.35 272.43-33.95ZM280.13-31.3L280.83-32.05 280.83-6.9Q280.83-4.85 281.2-3.83 281.58-2.8 282.6-2.48 283.63-2.15 285.48-2.15L285.48-2.15Q289.18-2.15 290.9-4.03 292.63-5.9 292.63-9.15L292.63-9.15Q292.63-11.5 291.68-12.98 290.73-14.45 289.15-15.23 287.58-16 285.7-16.3 283.83-16.6 281.98-16.6L281.98-16.6 280.23-16.6 280.23-18.75 282.38-18.75Q285.63-18.75 287.33-19.65 289.03-20.55 289.68-22.03 290.33-23.5 290.33-25.1L290.33-25.1Q290.33-27.7 289.15-29.13 287.98-30.55 286.25-31.13 284.53-31.7 282.88-31.7L282.88-31.7Q282.23-31.7 281.6-31.63 280.98-31.55 280.13-31.3L280.13-31.3ZM325.58 0.45L325.58 0.45Q324.58-1.2 323.92-2.33 323.28-3.45 322.78-4.42 322.28-5.4 321.63-6.55L321.63-6.55Q320.68-8.35 319.78-9.8 318.88-11.25 317.7-12.75 316.53-14.25 314.78-16.05L314.78-16.05 316.08-15.4Q314.78-15.35 313.68-15.35 312.58-15.35 311.58-15.4L311.58-15.4 311.58-17.75Q312.28-17.65 312.88-17.6 313.48-17.55 314.13-17.55L314.13-17.55Q316.88-17.55 319.08-18.32 321.28-19.1 322.58-20.75 323.88-22.4 323.88-25L323.88-25Q323.88-27.95 322-29.83 320.13-31.7 315.63-31.7L315.63-31.7Q314.48-31.7 313.58-31.6 312.68-31.5 311.68-31.25L311.68-31.25 311.93-31.8 311.93-6.35Q311.93-4.7 312.23-3.78 312.53-2.85 313.25-2.48 313.98-2.1 315.23-2L315.23-2Q315.38-1.55 315.43-0.98 315.48-0.4 315.48 0.15L315.48 0.15Q314.43 0.05 313.28 0.03 312.13 0 311.15 0 310.18 0 309.53 0L309.53 0Q308.23 0 306.45 0.03 304.68 0.05 303.53 0.15L303.53 0.15Q303.53-0.4 303.58-0.95 303.63-1.5 303.78-2L303.78-2Q305.13-2.1 305.88-2.48 306.63-2.85 306.93-3.78 307.23-4.7 307.23-6.35L307.23-6.35 307.23-27.45Q307.23-29.15 306.93-30.08 306.63-31 305.88-31.4 305.13-31.8 303.78-31.8L303.78-31.8Q303.63-32.3 303.58-32.8 303.53-33.3 303.53-33.9L303.53-33.9Q304.28-33.85 306.03-33.83 307.78-33.8 309.53-33.8L309.53-33.8Q311.58-33.8 313.68-33.85 315.78-33.9 317.88-33.9L317.88-33.9Q321.68-33.9 324.08-32.8 326.48-31.7 327.63-29.8 328.78-27.9 328.78-25.5L328.78-25.5Q328.78-23.2 327.67-21.33 326.58-19.45 324.55-18.18 322.53-16.9 319.73-16.25L319.73-16.25 319.98-16.85Q321.38-15.4 322.35-14.1 323.33-12.8 324.38-11.15 325.42-9.5 326.88-7L326.88-7Q327.92-5.25 328.75-4.23 329.58-3.2 330.67-2.73 331.78-2.25 333.63-2.15L333.63-2.15Q333.63-1.55 333.6-1.05 333.58-0.55 333.42 0L333.42 0Q331.58 0 329.5 0.08 327.42 0.15 325.58 0.45ZM352.82-34.1L352.82-34.1 364.72-6.8Q365.57-4.95 366.12-3.95 366.67-2.95 367.25-2.55 367.82-2.15 368.57-2L368.57-2Q368.77-1.35 368.82-0.9 368.87-0.45 368.87 0.15L368.87 0.15Q368.37 0.1 367.32 0.08 366.27 0.05 365.12 0.03 363.97 0 363.17 0L363.17 0Q362.57 0 361.77 0.03 360.97 0.05 360.12 0.08 359.27 0.1 358.6 0.13 357.92 0.15 357.52 0.15L357.52 0.15Q357.52-0.45 357.6-1 357.67-1.55 357.87-2L357.87-2Q359.92-2.25 360.3-2.93 360.67-3.6 359.67-5.9L359.67-5.9 352.72-22.15Q352.07-23.7 351.57-24.9 351.07-26.1 350.37-27.95L350.37-27.95 350.62-27.95Q350.02-26.05 349.55-24.73 349.07-23.4 348.62-22.2L348.62-22.2 342.92-7.35Q341.82-4.4 342.25-3.28 342.67-2.15 344.72-2L344.72-2Q344.92-1.55 345-1 345.07-0.45 345.07 0.15L345.07 0.15Q344.52 0.1 343.72 0.08 342.92 0.05 342.05 0.03 341.17 0 340.32 0L340.32 0Q339.07 0 337.97 0.05 336.87 0.1 336.17 0.15L336.17 0.15Q336.17-0.35 336.25-0.93 336.32-1.5 336.52-1.95L336.52-1.95Q337.42-2.15 338.02-2.65 338.62-3.15 339.2-4.28 339.77-5.4 340.52-7.35L340.52-7.35 350.87-33.9Q351.37-34 351.8-34.05 352.22-34.1 352.82-34.1ZM344.52-13.25L357.37-13.25 357.82-11Q354.47-11 350.65-10.95 346.82-10.9 343.72-10.8L343.72-10.8 344.52-13.25ZM376.62-6.35L376.62-27.45Q376.62-29.15 376.32-30.05 376.02-30.95 375.27-31.35 374.52-31.75 373.17-31.8L373.17-31.8Q373.02-32.2 372.97-32.75 372.92-33.3 372.92-33.95L372.92-33.95Q373.87-33.9 374.85-33.88 375.82-33.85 376.87-33.83 377.92-33.8 378.97-33.8L378.97-33.8Q380.07-33.8 381.07-33.83 382.07-33.85 383.05-33.88 384.02-33.9 385.02-33.95L385.02-33.95Q385.02-33.3 384.97-32.75 384.92-32.2 384.77-31.8L384.77-31.8Q383.47-31.75 382.7-31.35 381.92-30.95 381.62-30.05 381.32-29.15 381.32-27.45L381.32-27.45 381.32-6.35Q381.32-4.7 381.62-3.78 381.92-2.85 382.7-2.48 383.47-2.1 384.77-2L384.77-2Q384.92-1.6 384.97-1.07 385.02-0.55 385.02 0.15L385.02 0.15Q383.52 0.05 381.97 0.03 380.42 0 378.97 0L378.97 0Q377.52 0 375.87 0.03 374.22 0.05 372.92 0.15L372.92 0.15Q372.92-0.55 372.97-1.07 373.02-1.6 373.17-2L373.17-2Q374.52-2.1 375.27-2.48 376.02-2.85 376.32-3.78 376.62-4.7 376.62-6.35L376.62-6.35ZM417.62-7.5L417.52 0.3 394.12-30.25Q393.42-31.15 392.77-31.43 392.12-31.7 390.87-31.8L390.87-31.8Q390.72-32.35 390.67-32.95 390.62-33.55 390.62-33.95L390.62-33.95Q391.12-33.9 391.74-33.88 392.37-33.85 393.04-33.83 393.72-33.8 394.32-33.8L394.32-33.8Q395.27-33.8 396.14-33.85 397.02-33.9 397.67-33.95L397.67-33.95 417.62-7.5ZM390.62 0.15L390.62 0.15Q390.62-0.5 390.67-1.03 390.72-1.55 390.87-2L390.87-2Q392.22-2 392.97-2.65 393.72-3.3 394.02-4.93 394.32-6.55 394.32-9.35L394.32-9.35 394.32-30.5 396.87-30.5 396.87-9.35Q396.87-6.55 397.17-4.93 397.47-3.3 398.22-2.65 398.97-2 400.32-2L400.32-2Q400.47-1.55 400.52-1.05 400.57-0.55 400.57 0.15L400.57 0.15Q399.82 0.1 398.94 0.08 398.07 0.05 397.22 0.03 396.37 0 395.62 0L395.62 0Q394.92 0 393.97 0.03 393.02 0.05 392.14 0.08 391.27 0.1 390.62 0.15ZM417.52 0.3L417.52 0.3 417.12-4.7 417.12-24.7Q417.12-27.45 416.82-28.98 416.52-30.5 415.77-31.15 415.02-31.8 413.67-31.8L413.67-31.8Q413.52-32.65 413.47-33.08 413.42-33.5 413.42-33.95L413.42-33.95Q414.17-33.9 414.97-33.88 415.77-33.85 416.59-33.83 417.42-33.8 418.12-33.8L418.12-33.8Q419.17-33.8 420.52-33.85 421.87-33.9 422.87-33.95L422.87-33.95Q422.87-33.45 422.82-32.9 422.77-32.35 422.62-31.8L422.62-31.8Q421.52-31.8 420.87-31.15 420.22-30.5 419.94-28.98 419.67-27.45 419.67-24.7L419.67-24.7 419.67 0Q419.27 0.15 418.67 0.23 418.07 0.3 417.52 0.3ZM438.47 0.45L438.47 0.45Q435.36 0.45 433.04-0.43 430.72-1.3 428.32-2.75L428.32-2.75Q428.61-4.65 428.69-6.55 428.77-8.45 428.77-9.85L428.77-9.85Q429.32-10 430.07-10.08 430.82-10.15 431.47-10.15L431.47-10.15Q431.61-7.6 432.39-5.78 433.17-3.95 434.84-2.95 436.52-1.95 439.17-1.95L439.17-1.95Q442.61-1.95 444.09-3.48 445.57-5 445.57-7.15L445.57-7.15Q445.57-9.35 444.37-10.78 443.17-12.2 441.27-13.2 439.36-14.2 437.24-15.15 435.11-16.1 433.22-17.35 431.32-18.6 430.11-20.48 428.92-22.35 428.92-25.25L428.92-25.25Q428.92-28.05 430.14-30.08 431.36-32.1 433.61-33.18 435.86-34.25 438.97-34.25L438.97-34.25Q440.72-34.25 442.29-33.95 443.86-33.65 445.17-33.15 446.47-32.65 447.32-32.05L447.32-32.05Q447.32-30.6 447.37-28.7 447.42-26.8 447.62-25.45L447.62-25.45Q447.07-25.25 446.29-25.13 445.52-25 444.82-25L444.82-25Q444.32-27.9 443.52-29.4 442.72-30.9 441.57-31.48 440.42-32.05 438.92-32.05L438.92-32.05Q436.27-32.05 434.77-30.75 433.27-29.45 433.27-27.1L433.27-27.1Q433.27-24.9 434.47-23.45 435.67-22 437.57-20.95 439.47-19.9 441.57-18.93 443.67-17.95 445.57-16.73 447.47-15.5 448.67-13.7 449.87-11.9 449.87-9.15L449.87-9.15Q449.87-6.65 448.67-4.45 447.47-2.25 444.97-0.9 442.47 0.45 438.47 0.45Z" fill="#ffffff" data-fill-palette-color="primary"></path></g></svg></g></svg></g><g transform="matrix(1,0,0,1,0,37.45353670238216)"><svg viewBox="0 0 108.8731923044805 18.725616937851857" height="18.725616937851857" width="108.8731923044805"><g transform="matrix(1,0,0,1,0,0)"><svg width="108.8731923044805" viewBox="5.76 -37.87 222.98000000000002 38.36" height="18.725616937851857" data-palette-color="#81ffd9"><path d="M5.76 0L5.76-37.35 26.93-37.35 26.93-33.74 9.91-33.74 9.91-20.85 23.63-20.85 23.63-17.26 9.91-17.26 9.91-3.59 27.59-3.59 27.59 0 5.76 0ZM31.25-2.47L32.86-5.88Q38.4-2.95 43.7-2.95L43.7-2.95Q49.85-2.95 50.9-6.88L50.9-6.88Q51.24-8.18 51.24-9.86L51.24-9.86 51.24-10.82Q51.24-12.52 51-13.57 50.75-14.62 49.97-15.28L49.97-15.28Q48.7-16.38 43.97-17.11L43.97-17.11Q39.74-17.77 38.13-18.36 36.52-18.95 35.48-19.64 34.45-20.34 33.71-21.39L33.71-21.39Q32.2-23.58 32.2-27.47L32.2-27.47 32.2-27.71Q32.2-35.77 38.89-37.35L38.89-37.35Q41.01-37.84 43.7-37.84L43.7-37.84 44.02-37.84Q50.29-37.84 54.27-36.04L54.27-36.04 53-32.3Q48.19-34.38 44.14-34.38L44.14-34.38 43.92-34.38Q39.45-34.38 37.77-32.69L37.77-32.69Q36.35-31.27 36.35-27.78L36.35-27.78 36.35-27.69Q36.35-23.71 38.55-22.46L38.55-22.46Q40.04-21.66 43.88-21.04 47.73-20.43 49.61-20.01 51.49-19.58 52.81-18.6L52.81-18.6Q55.54-16.55 55.54-10.82L55.54-10.82 55.54-10.5Q55.54-1.73 48.48-0.05L48.48-0.05Q46.31 0.49 44.38 0.49 42.45 0.49 40.88 0.35 39.3 0.22 37.67-0.12L37.67-0.12Q33.84-0.9 31.25-2.47L31.25-2.47ZM68.57 0L68.57-33.74 58.61-33.74 58.61-37.35 83.03-37.35 83.03-33.74 72.72-33.74 72.72 0 68.57 0ZM87.41-0.04Q86.96-0.54 86.83-1.16 86.71-1.78 86.71-2.75 86.71-3.71 86.85-4.32 86.98-4.93 87.32-5.27L87.32-5.27Q87.88-5.91 89.15-5.91 90.42-5.91 90.97-5.77 91.52-5.64 91.84-5.27L91.84-5.27Q92.4-4.66 92.4-2.76L92.4-2.76Q92.4-0.85 91.96-0.34L91.96-0.34Q91.28 0.46 89.57 0.46L89.57 0.46Q87.86 0.46 87.41-0.04ZM127.94-29.08L127.94-29.08Q127.94-34.3 122.2-34.3L122.2-34.3Q119.2-34.3 115.51-32.62L115.51-32.62Q114.47-32.13 113.68-31.59L113.68-31.59 112.07-34.99Q114.66-36.99 119.71-37.67L119.71-37.67Q121.13-37.87 123.12-37.87 125.11-37.87 127.04-37.24 128.97-36.62 130.16-35.5L130.16-35.5Q132.43-33.4 132.43-29.54L132.43-29.54Q132.43-25.2 129.33-20.02L129.33-20.02Q126.77-15.8 123.21-11.38L123.21-11.38 116.74-3.56 132.9-3.56 132.9 0 111.85 0 111.56-3.15Q113.39-5.13 115.3-7.42L115.3-7.42Q121.76-15.5 124.82-20.12L124.82-20.12Q127.94-25.02 127.94-29.08ZM156.89 0.49L155.38 0.49Q146.81 0.49 144.49-4.98L144.49-4.98Q143.12-8.18 143.03-13.43L143.03-13.43Q142.98-15.89 142.98-18.65L142.98-18.65 142.98-20.12Q142.98-26.66 143.52-29.22 144.05-31.79 144.87-33.29 145.69-34.79 147.06-35.79L147.06-35.79Q149.81-37.84 155.38-37.84L155.38-37.84 156.89-37.84Q162.83-37.84 165.66-35.84L165.66-35.84Q169.17-33.33 169.42-25.46L169.42-25.46Q169.49-23.02 169.49-20.12L169.49-20.12 169.49-18.65Q169.49-11.87 169.04-9.24 168.59-6.62 167.81-4.91 167.03-3.2 165.61-2L165.61-2Q162.7 0.49 156.89 0.49L156.89 0.49ZM155.38-3.15L156.85-3.15Q159.48-3.15 161.11-3.74 162.73-4.32 163.64-5.79 164.56-7.25 164.88-9.75 165.19-12.26 165.19-16.09L165.19-16.09 165.19-20.12Q165.19-23.85 165.05-26.51 164.9-29.17 164.13-30.86 163.36-32.54 161.73-33.34 160.09-34.13 157.14-34.13L157.14-34.13 155.09-34.13Q149.79-34.13 148.35-30.81L148.35-30.81Q147.45-28.69 147.35-25.62 147.25-22.56 147.25-20.12L147.25-20.12 147.25-16.09Q147.25-8.67 148.81-6.01L148.81-6.01Q150.52-3.15 155.38-3.15L155.38-3.15ZM194.59-29.08L194.59-29.08Q194.59-34.3 188.85-34.3L188.85-34.3Q185.85-34.3 182.16-32.62L182.16-32.62Q181.11-32.13 180.33-31.59L180.33-31.59 178.72-34.99Q181.31-36.99 186.36-37.67L186.36-37.67Q187.78-37.87 189.77-37.87 191.75-37.87 193.68-37.24 195.61-36.62 196.81-35.5L196.81-35.5Q199.08-33.4 199.08-29.54L199.08-29.54Q199.08-25.2 195.98-20.02L195.98-20.02Q193.42-15.8 189.85-11.38L189.85-11.38 183.38-3.56 199.54-3.56 199.54 0 178.5 0 178.21-3.15Q180.04-5.13 181.94-7.42L181.94-7.42Q188.41-15.5 191.46-20.12L191.46-20.12Q194.59-25.02 194.59-29.08ZM228.74-11.21L228.74-11.21 228.72-10.16Q228.54-4.39 224.93-1.76L224.93-1.76Q221.88 0.49 216.61 0.49L216.61 0.49Q210.92 0.49 206.52-1.46L206.52-1.46 207.69-5.13Q212.72-3.05 217.9-3.05L217.9-3.05Q224.27-3.05 224.27-10.69L224.27-10.69 224.27-11.11Q224.27-17.31 219.76-17.9L219.76-17.9Q218.44-18.07 217.06-18.07 215.68-18.07 214.43-17.99L214.43-17.99 212.02-17.85 211.7-21.02Q216.31-22.17 219.49-24.49L219.49-24.49Q222.93-27 222.89-29.6 222.86-32.2 221.48-33.29 220.1-34.38 217-34.35L217-34.35Q212.82-34.35 208.96-32.32L208.96-32.32 207.69-35.94Q211.5-37.74 217.39-37.84L217.39-37.84Q222.17-37.89 224.78-35.74L224.78-35.74Q227.2-33.72 227.25-30.22L227.25-30.22Q227.32-25.07 221.9-22.41L221.9-22.41Q220.29-21.63 218.51-20.97L218.51-20.97 218.56-20.75Q224.3-20.85 226.57-18.58L226.57-18.58Q228.74-16.41 228.74-11.21Z" opacity="1" transform="matrix(1,0,0,1,0,0)" fill="#81ffd9" class="slogan-text-1" data-fill-palette-color="secondary" id="text-1"></path></svg></g></svg></g></svg></g></svg></g><g><svg viewBox="0 0 134.68865465164376 134.68865465164376" height="134.68865465164376" width="134.68865465164376"><g><svg></svg></g><g id="icon-0"><svg viewBox="0 0 134.68865465164376 134.68865465164376" height="134.68865465164376" width="134.68865465164376"><g><path d="M0 67.344c0-37.193 30.151-67.344 67.344-67.344 37.193 0 67.344 30.151 67.345 67.344 0 37.193-30.151 67.344-67.345 67.345-37.193 0-67.344-30.151-67.344-67.345zM67.344 131.956c35.684 0 64.612-28.928 64.612-64.612 0-35.684-28.928-64.612-64.612-64.611-35.684 0-64.612 28.928-64.611 64.611 0 35.684 28.928 64.612 64.611 64.612z" data-fill-palette-color="accent" fill="#81ffd9" stroke="transparent"></path></g><g transform="matrix(1,0,0,1,30.303552732819256,30.298831656928492)"><svg viewBox="0 0 74.08154918600525 74.09099133778678" height="74.09099133778678" width="74.08154918600525"><g><svg xmlns="http://www.w3.org/2000/svg" xmlns:xlink="http://www.w3.org/1999/xlink" version="1.1" x="0" y="0" viewBox="0.46199999999999974 0.347 47.075 47.080999999999996" enable-background="new 0 0 48 48" xml:space="preserve" height="74.09099133778678" width="74.08154918600525" class="icon-z$-0" data-fill-palette-color="accent" id="z$-0"><path d="M24 47.424c0.008 0 0.015 0 0.022 0 0.01 0 0.02 0.004 0.029 0.004 0.001 0 0.001 0 0.002 0s0.001 0 0.001 0c0.015 0 0.03-0.006 0.045-0.006 12.933-0.055 23.438-10.59 23.438-23.537 0-12.915-10.456-23.43-23.347-23.533-0.005 0-0.011 0-0.015 0C24.117 0.351 24.06 0.347 24 0.347c-12.979 0-23.538 10.56-23.538 23.538C0.462 36.865 11.021 47.424 24 47.424zM44.374 23.885c0 2.675-0.523 5.228-1.466 7.57-1.109-0.391-2.838-0.938-5.087-1.461 0.467-1.98 0.725-4.025 0.725-6.109 0-2.11-0.265-4.183-0.744-6.188 1.665-0.393 3.36-0.871 5.085-1.439C43.842 18.615 44.374 21.189 44.374 23.885zM35.381 23.885c0 1.869-0.235 3.703-0.66 5.476-2.625-0.463-5.707-0.818-9.138-0.896v-9.169c2.859-0.078 5.917-0.371 9.122-0.951C35.141 20.138 35.381 21.994 35.381 23.885zM22.418 42.912c-3.653-2.662-6.427-6.299-8.052-10.436 2.816-0.48 5.512-0.721 8.052-0.793V42.912zM25.583 42.986V31.68c3.041 0.076 5.792 0.381 8.166 0.775C32.11 36.641 29.295 40.313 25.583 42.986zM25.583 16.092V4.785c3.705 2.67 6.518 6.335 8.159 10.511C30.886 15.784 28.153 16.024 25.583 16.092zM22.418 4.859v11.232c-3-0.082-5.714-0.385-8.061-0.774C15.98 11.171 18.758 7.527 22.418 4.859zM22.418 19.3v9.176c-2.83 0.082-5.852 0.369-9.018 0.943-0.435-1.791-0.674-3.645-0.674-5.535 0-1.869 0.234-3.703 0.66-5.478C15.986 18.865 19.027 19.217 22.418 19.3zM10.304 30.066c-1.695 0.4-3.424 0.889-5.18 1.473-0.963-2.365-1.497-4.947-1.497-7.654 0-2.688 0.527-5.252 1.478-7.604 1.102 0.393 2.868 0.955 5.181 1.494-0.467 1.98-0.724 4.025-0.724 6.109C9.562 25.994 9.825 28.063 10.304 30.066zM6.555 34.396c1.58-0.51 3.137-0.932 4.667-1.283 1.434 3.883 3.756 7.396 6.792 10.246C13.187 41.873 9.12 38.639 6.555 34.396zM30.149 43.309c3.021-2.852 5.329-6.361 6.752-10.238 1.974 0.445 3.53 0.906 4.584 1.258C38.952 38.555 34.931 41.791 30.149 43.309zM41.464 13.405c-1.549 0.497-3.076 0.91-4.578 1.255-1.425-3.86-3.727-7.355-6.736-10.197C34.916 5.975 38.929 9.197 41.464 13.405zM18.015 4.411c-3.049 2.861-5.378 6.39-6.81 10.291-2.03-0.457-3.62-0.935-4.674-1.287C9.095 9.153 13.172 5.903 18.015 4.411z" fill="#81ffd9" data-fill-palette-color="accent"></path></svg></g></svg></g></svg></g></svg></g></svg></g><defs></defs></svg><rect width="395.52" height="97.83395158058485" fill="none" stroke="none" visibility="hidden"></rect></g></svg></g></svg>