<svg xmlns="http://www.w3.org/2000/svg" xmlns:xlink="http://www.w3.org/1999/xlink" width="500" zoomAndPan="magnify" viewBox="0 0 375 374.999991" height="500" preserveAspectRatio="xMidYMid meet" version="1.0"><defs><g/><clipPath id="7e083c8c9f"><path d="M 38.179688 56 L 336.679688 56 L 336.679688 292.015625 L 38.179688 292.015625 Z M 38.179688 56 " clip-rule="nonzero"/></clipPath><clipPath id="0f2a37b4ef"><path d="M 336.679688 205.058594 C 336.679688 122.738281 269.859375 56.003906 187.429688 56.003906 C 105 56.003906 38.179688 122.738281 38.179688 205.058594 C 38.179688 237.582031 48.617188 267.667969 66.320312 292.171875 C 51.171875 268.71875 42.34375 240.609375 42.34375 210.386719 C 42.34375 128.371094 107.300781 61.882812 187.429688 61.882812 C 267.558594 61.882812 332.515625 128.371094 332.515625 210.386719 C 332.515625 240.609375 323.6875 268.71875 308.539062 292.171875 C 326.242188 267.667969 336.679688 237.582031 336.679688 205.058594 Z M 336.679688 205.058594 " clip-rule="evenodd"/></clipPath><linearGradient x1="4633.110155" gradientTransform="matrix(0, -0.0509743, -0.0510413, 0, 336.679106, 292.173609)" y1="2924.1001" x2="3.114403" gradientUnits="userSpaceOnUse" y2="2924.1001" id="957139d3f7"><stop stop-opacity="1" stop-color="rgb(8.737183%, 48.449707%, 75.064087%)" offset="0"/><stop stop-opacity="1" stop-color="rgb(8.830261%, 48.280334%, 74.928284%)" offset="0.015625"/><stop stop-opacity="1" stop-color="rgb(9.016418%, 47.941589%, 74.656677%)" offset="0.03125"/><stop stop-opacity="1" stop-color="rgb(9.204102%, 47.60437%, 74.383545%)" offset="0.046875"/><stop stop-opacity="1" stop-color="rgb(9.390259%, 47.265625%, 74.111938%)" offset="0.0625"/><stop stop-opacity="1" stop-color="rgb(9.576416%, 46.92688%, 73.840332%)" offset="0.078125"/><stop stop-opacity="1" stop-color="rgb(9.762573%, 46.588135%, 73.568726%)" offset="0.09375"/><stop stop-opacity="1" stop-color="rgb(9.950256%, 46.24939%, 73.295593%)" offset="0.109375"/><stop stop-opacity="1" stop-color="rgb(10.136414%, 45.91217%, 73.023987%)" offset="0.125"/><stop stop-opacity="1" stop-color="rgb(10.322571%, 45.573425%, 72.75238%)" offset="0.140625"/><stop stop-opacity="1" stop-color="rgb(10.510254%, 45.23468%, 72.480774%)" offset="0.15625"/><stop stop-opacity="1" stop-color="rgb(10.696411%, 44.895935%, 72.209167%)" offset="0.171875"/><stop stop-opacity="1" stop-color="rgb(10.882568%, 44.55719%, 71.936035%)" offset="0.1875"/><stop stop-opacity="1" stop-color="rgb(11.068726%, 44.219971%, 71.664429%)" offset="0.203125"/><stop stop-opacity="1" stop-color="rgb(11.256409%, 43.881226%, 71.392822%)" offset="0.21875"/><stop stop-opacity="1" stop-color="rgb(11.442566%, 43.54248%, 71.121216%)" offset="0.234375"/><stop stop-opacity="1" stop-color="rgb(11.628723%, 43.203735%, 70.848083%)" offset="0.25"/><stop stop-opacity="1" stop-color="rgb(11.816406%, 42.86499%, 70.576477%)" offset="0.265625"/><stop stop-opacity="1" stop-color="rgb(12.002563%, 42.526245%, 70.304871%)" offset="0.28125"/><stop stop-opacity="1" stop-color="rgb(12.188721%, 42.189026%, 70.033264%)" offset="0.296875"/><stop stop-opacity="1" stop-color="rgb(12.374878%, 41.850281%, 69.760132%)" offset="0.3125"/><stop stop-opacity="1" stop-color="rgb(12.562561%, 41.511536%, 69.488525%)" offset="0.328125"/><stop stop-opacity="1" stop-color="rgb(12.748718%, 41.172791%, 69.216919%)" offset="0.34375"/><stop stop-opacity="1" stop-color="rgb(12.934875%, 40.834045%, 68.945312%)" offset="0.359375"/><stop stop-opacity="1" stop-color="rgb(13.122559%, 40.496826%, 68.673706%)" offset="0.375"/><stop stop-opacity="1" stop-color="rgb(13.308716%, 40.158081%, 68.400574%)" offset="0.390625"/><stop stop-opacity="1" stop-color="rgb(13.494873%, 39.819336%, 68.128967%)" offset="0.40625"/><stop stop-opacity="1" stop-color="rgb(13.68103%, 39.480591%, 67.857361%)" offset="0.421875"/><stop stop-opacity="1" stop-color="rgb(13.868713%, 39.141846%, 67.585754%)" offset="0.4375"/><stop stop-opacity="1" stop-color="rgb(14.054871%, 38.804626%, 67.312622%)" offset="0.453125"/><stop stop-opacity="1" stop-color="rgb(14.241028%, 38.465881%, 67.041016%)" offset="0.46875"/><stop stop-opacity="1" stop-color="rgb(14.428711%, 38.127136%, 66.769409%)" offset="0.484375"/><stop stop-opacity="1" stop-color="rgb(14.614868%, 37.788391%, 66.497803%)" offset="0.5"/><stop stop-opacity="1" stop-color="rgb(14.801025%, 37.449646%, 66.226196%)" offset="0.515625"/><stop stop-opacity="1" stop-color="rgb(14.987183%, 37.112427%, 65.953064%)" offset="0.53125"/><stop stop-opacity="1" stop-color="rgb(15.174866%, 36.773682%, 65.681458%)" offset="0.546875"/><stop stop-opacity="1" stop-color="rgb(15.361023%, 36.434937%, 65.409851%)" offset="0.5625"/><stop stop-opacity="1" stop-color="rgb(15.54718%, 36.096191%, 65.138245%)" offset="0.578125"/><stop stop-opacity="1" stop-color="rgb(15.734863%, 35.757446%, 64.865112%)" offset="0.59375"/><stop stop-opacity="1" stop-color="rgb(15.921021%, 35.420227%, 64.593506%)" offset="0.609375"/><stop stop-opacity="1" stop-color="rgb(16.107178%, 35.081482%, 64.321899%)" offset="0.625"/><stop stop-opacity="1" stop-color="rgb(16.294861%, 34.742737%, 64.050293%)" offset="0.640625"/><stop stop-opacity="1" stop-color="rgb(16.481018%, 34.403992%, 63.777161%)" offset="0.65625"/><stop stop-opacity="1" stop-color="rgb(16.667175%, 34.065247%, 63.505554%)" offset="0.671875"/><stop stop-opacity="1" stop-color="rgb(16.853333%, 33.726501%, 63.233948%)" offset="0.6875"/><stop stop-opacity="1" stop-color="rgb(17.041016%, 33.389282%, 62.962341%)" offset="0.703125"/><stop stop-opacity="1" stop-color="rgb(17.227173%, 33.050537%, 62.690735%)" offset="0.71875"/><stop stop-opacity="1" stop-color="rgb(17.41333%, 32.711792%, 62.417603%)" offset="0.734375"/><stop stop-opacity="1" stop-color="rgb(17.601013%, 32.373047%, 62.145996%)" offset="0.75"/><stop stop-opacity="1" stop-color="rgb(17.78717%, 32.034302%, 61.87439%)" offset="0.765625"/><stop stop-opacity="1" stop-color="rgb(17.973328%, 31.697083%, 61.602783%)" offset="0.78125"/><stop stop-opacity="1" stop-color="rgb(18.159485%, 31.358337%, 61.329651%)" offset="0.796875"/><stop stop-opacity="1" stop-color="rgb(18.347168%, 31.019592%, 61.058044%)" offset="0.8125"/><stop stop-opacity="1" stop-color="rgb(18.533325%, 30.680847%, 60.786438%)" offset="0.828125"/><stop stop-opacity="1" stop-color="rgb(18.714905%, 30.349731%, 60.520935%)" offset="0.84375"/><stop stop-opacity="1" stop-color="rgb(18.859863%, 30.044556%, 60.279846%)" offset="0.875"/><stop stop-opacity="1" stop-color="rgb(18.972778%, 29.75769%, 60.057068%)" offset="0.90625"/><stop stop-opacity="1" stop-color="rgb(19.085693%, 29.472351%, 59.835815%)" offset="0.9375"/><stop stop-opacity="1" stop-color="rgb(19.198608%, 29.185486%, 59.613037%)" offset="0.96875"/><stop stop-opacity="1" stop-color="rgb(19.311523%, 28.898621%, 59.391785%)" offset="1"/></linearGradient><clipPath id="fd42ca826c"><path d="M 155 108 L 275.097656 108 L 275.097656 260 L 155 260 Z M 155 108 " clip-rule="nonzero"/></clipPath><clipPath id="4b6f5dcaea"><path d="M 99.597656 134 L 190 134 L 190 260 L 99.597656 260 Z M 99.597656 134 " clip-rule="nonzero"/></clipPath><clipPath id="f469d26c7d"><path d="M 200 75.515625 L 247 75.515625 L 247 122 L 200 122 Z M 200 75.515625 " clip-rule="nonzero"/></clipPath><clipPath id="0aab282c70"><path d="M 132 211 L 232 211 L 232 277.265625 L 132 277.265625 Z M 132 211 " clip-rule="nonzero"/></clipPath></defs><g clip-path="url(#7e083c8c9f)"><g clip-path="url(#0f2a37b4ef)"><path fill="url(#957139d3f7)" d="M 336.679688 292.015625 L 38.179688 292.015625 L 38.179688 56.003906 L 336.679688 56.003906 Z M 336.679688 292.015625 " fill-rule="nonzero"/></g></g><g clip-path="url(#fd42ca826c)"><path fill="#372576" d="M 186.089844 259.492188 C 186.867188 229.984375 187.644531 200.476562 188.421875 170.96875 C 177.515625 150.152344 166.605469 129.339844 155.699219 108.523438 C 176.265625 113.859375 196.832031 119.195312 217.398438 124.53125 C 236.628906 127.296875 255.867188 130.058594 275.097656 132.828125 C 258.75 157.789062 242.402344 182.75 226.054688 207.714844 C 212.734375 224.972656 199.414062 242.234375 186.09375 259.492188 Z M 186.089844 259.492188 " fill-opacity="1" fill-rule="nonzero"/></g><g clip-path="url(#4b6f5dcaea)"><path fill="#01aac8" d="M 186.117188 259.492188 C 181.59375 235.960938 177.070312 212.433594 172.546875 188.902344 C 178.328125 170.902344 184.109375 152.902344 189.894531 134.898438 C 174.492188 141.691406 159.09375 148.484375 143.695312 155.273438 C 128.996094 159.84375 114.296875 164.417969 99.601562 168.984375 C 115.714844 186.96875 131.832031 204.953125 147.945312 222.933594 C 160.667969 235.121094 173.390625 247.304688 186.117188 259.492188 Z M 186.117188 259.492188 " fill-opacity="1" fill-rule="nonzero"/></g><path fill="#4ccafc" d="M 186.09375 259.488281 C 185.09375 242.84375 184.089844 226.203125 183.089844 209.558594 C 176.28125 198.480469 169.476562 187.402344 162.667969 176.324219 C 173.878906 178.140625 185.085938 179.953125 196.296875 181.769531 C 206.671875 182.214844 217.050781 182.660156 227.425781 183.105469 C 219.917969 198.089844 212.40625 213.074219 204.898438 228.058594 C 198.628906 238.535156 192.363281 249.011719 186.097656 259.488281 Z M 186.09375 259.488281 " fill-opacity="1" fill-rule="nonzero"/><g clip-path="url(#f469d26c7d)"><path fill="#372576" d="M 246.035156 98.445312 C 246.035156 99.195312 246 99.941406 245.925781 100.6875 C 245.851562 101.429688 245.742188 102.171875 245.597656 102.90625 C 245.453125 103.640625 245.269531 104.363281 245.054688 105.082031 C 244.835938 105.796875 244.585938 106.5 244.300781 107.191406 C 244.015625 107.882812 243.695312 108.558594 243.34375 109.222656 C 242.992188 109.882812 242.609375 110.523438 242.195312 111.144531 C 241.78125 111.765625 241.335938 112.367188 240.863281 112.945312 C 240.390625 113.523438 239.886719 114.078125 239.359375 114.609375 C 238.832031 115.136719 238.28125 115.640625 237.703125 116.113281 C 237.128906 116.589844 236.527344 117.035156 235.90625 117.449219 C 235.289062 117.867188 234.648438 118.25 233.988281 118.605469 C 233.332031 118.957031 232.65625 119.277344 231.96875 119.5625 C 231.277344 119.847656 230.578125 120.101562 229.863281 120.320312 C 229.148438 120.535156 228.425781 120.71875 227.695312 120.863281 C 226.960938 121.011719 226.222656 121.121094 225.480469 121.191406 C 224.738281 121.265625 223.996094 121.304688 223.25 121.304688 C 222.5 121.304688 221.757812 121.265625 221.015625 121.191406 C 220.273438 121.121094 219.535156 121.011719 218.800781 120.863281 C 218.070312 120.71875 217.347656 120.535156 216.632812 120.320312 C 215.917969 120.101562 215.21875 119.847656 214.527344 119.5625 C 213.839844 119.277344 213.164062 118.957031 212.507812 118.605469 C 211.847656 118.25 211.207031 117.867188 210.589844 117.449219 C 209.96875 117.035156 209.367188 116.589844 208.792969 116.113281 C 208.214844 115.640625 207.664062 115.136719 207.136719 114.609375 C 206.609375 114.078125 206.105469 113.523438 205.632812 112.945312 C 205.160156 112.367188 204.714844 111.765625 204.300781 111.144531 C 203.886719 110.523438 203.503906 109.882812 203.152344 109.222656 C 202.800781 108.558594 202.480469 107.882812 202.195312 107.191406 C 201.910156 106.5 201.660156 105.796875 201.441406 105.082031 C 201.226562 104.363281 201.042969 103.640625 200.898438 102.90625 C 200.753906 102.171875 200.644531 101.429688 200.570312 100.6875 C 200.496094 99.941406 200.460938 99.195312 200.460938 98.445312 C 200.460938 97.699219 200.496094 96.949219 200.570312 96.207031 C 200.644531 95.460938 200.753906 94.722656 200.898438 93.988281 C 201.042969 93.253906 201.226562 92.527344 201.441406 91.8125 C 201.660156 91.09375 201.910156 90.390625 202.195312 89.699219 C 202.480469 89.007812 202.800781 88.332031 203.152344 87.671875 C 203.503906 87.011719 203.886719 86.371094 204.300781 85.746094 C 204.714844 85.125 205.160156 84.523438 205.632812 83.945312 C 206.105469 83.367188 206.609375 82.8125 207.136719 82.285156 C 207.664062 81.753906 208.214844 81.253906 208.792969 80.777344 C 209.367188 80.300781 209.96875 79.855469 210.589844 79.441406 C 211.207031 79.023438 211.847656 78.640625 212.507812 78.289062 C 213.164062 77.933594 213.839844 77.617188 214.527344 77.328125 C 215.21875 77.042969 215.917969 76.789062 216.632812 76.574219 C 217.347656 76.355469 218.070312 76.175781 218.800781 76.027344 C 219.535156 75.882812 220.273438 75.773438 221.015625 75.699219 C 221.757812 75.625 222.5 75.589844 223.25 75.589844 C 223.996094 75.589844 224.738281 75.625 225.480469 75.699219 C 226.222656 75.773438 226.960938 75.882812 227.695312 76.027344 C 228.425781 76.175781 229.148438 76.355469 229.863281 76.574219 C 230.578125 76.789062 231.277344 77.042969 231.96875 77.328125 C 232.65625 77.617188 233.332031 77.933594 233.988281 78.289062 C 234.648438 78.640625 235.289062 79.023438 235.90625 79.441406 C 236.527344 79.855469 237.128906 80.300781 237.703125 80.777344 C 238.28125 81.253906 238.832031 81.753906 239.359375 82.285156 C 239.886719 82.8125 240.390625 83.367188 240.863281 83.945312 C 241.335938 84.523438 241.78125 85.125 242.195312 85.746094 C 242.609375 86.371094 242.992188 87.011719 243.34375 87.671875 C 243.695312 88.332031 244.015625 89.007812 244.300781 89.699219 C 244.585938 90.390625 244.835938 91.09375 245.054688 91.8125 C 245.269531 92.527344 245.453125 93.253906 245.597656 93.988281 C 245.742188 94.722656 245.851562 95.460938 245.925781 96.207031 C 246 96.949219 246.035156 97.699219 246.035156 98.445312 Z M 246.035156 98.445312 " fill-opacity="1" fill-rule="nonzero"/></g><path fill="#01aac8" d="M 152.542969 133.464844 C 152.542969 134.082031 152.511719 134.695312 152.453125 135.304688 C 152.390625 135.917969 152.300781 136.527344 152.183594 137.128906 C 152.0625 137.734375 151.914062 138.328125 151.734375 138.917969 C 151.558594 139.503906 151.351562 140.085938 151.117188 140.652344 C 150.882812 141.222656 150.621094 141.777344 150.332031 142.320312 C 150.042969 142.859375 149.726562 143.386719 149.386719 143.898438 C 149.046875 144.410156 148.679688 144.90625 148.292969 145.378906 C 147.902344 145.855469 147.492188 146.3125 147.058594 146.746094 C 146.625 147.179688 146.171875 147.59375 145.695312 147.984375 C 145.222656 148.375 144.730469 148.738281 144.21875 149.082031 C 143.710938 149.421875 143.183594 149.738281 142.644531 150.027344 C 142.101562 150.320312 141.550781 150.582031 140.984375 150.816406 C 140.417969 151.050781 139.839844 151.257812 139.253906 151.4375 C 138.667969 151.617188 138.070312 151.765625 137.46875 151.886719 C 136.867188 152.007812 136.261719 152.097656 135.652344 152.15625 C 135.042969 152.214844 134.429688 152.246094 133.816406 152.246094 C 133.203125 152.246094 132.59375 152.214844 131.980469 152.15625 C 131.371094 152.097656 130.765625 152.007812 130.164062 151.886719 C 129.5625 151.765625 128.96875 151.617188 128.382812 151.4375 C 127.796875 151.257812 127.21875 151.050781 126.652344 150.816406 C 126.085938 150.582031 125.53125 150.320312 124.992188 150.027344 C 124.449219 149.738281 123.925781 149.421875 123.414062 149.082031 C 122.90625 148.738281 122.414062 148.375 121.9375 147.984375 C 121.464844 147.59375 121.011719 147.179688 120.578125 146.746094 C 120.144531 146.3125 119.734375 145.855469 119.34375 145.378906 C 118.953125 144.90625 118.589844 144.410156 118.25 143.898438 C 117.910156 143.386719 117.59375 142.859375 117.304688 142.320312 C 117.015625 141.777344 116.753906 141.222656 116.519531 140.652344 C 116.285156 140.085938 116.078125 139.503906 115.898438 138.917969 C 115.722656 138.328125 115.574219 137.734375 115.453125 137.128906 C 115.332031 136.527344 115.242188 135.917969 115.183594 135.304688 C 115.125 134.695312 115.09375 134.082031 115.09375 133.464844 C 115.09375 132.851562 115.125 132.238281 115.183594 131.625 C 115.242188 131.011719 115.332031 130.40625 115.453125 129.800781 C 115.574219 129.199219 115.722656 128.601562 115.898438 128.011719 C 116.078125 127.425781 116.285156 126.847656 116.519531 126.277344 C 116.753906 125.710938 117.015625 125.152344 117.304688 124.613281 C 117.59375 124.070312 117.910156 123.542969 118.25 123.03125 C 118.589844 122.519531 118.953125 122.027344 119.34375 121.550781 C 119.734375 121.074219 120.144531 120.621094 120.578125 120.183594 C 121.011719 119.75 121.464844 119.335938 121.9375 118.945312 C 122.414062 118.554688 122.90625 118.191406 123.414062 117.847656 C 123.925781 117.507812 124.449219 117.191406 124.992188 116.902344 C 125.53125 116.609375 126.085938 116.347656 126.652344 116.113281 C 127.21875 115.878906 127.796875 115.671875 128.382812 115.492188 C 128.96875 115.3125 129.5625 115.164062 130.164062 115.042969 C 130.765625 114.925781 131.371094 114.835938 131.980469 114.773438 C 132.59375 114.714844 133.203125 114.683594 133.816406 114.683594 C 134.429688 114.683594 135.042969 114.714844 135.652344 114.773438 C 136.261719 114.835938 136.867188 114.925781 137.46875 115.042969 C 138.070312 115.164062 138.667969 115.3125 139.253906 115.492188 C 139.839844 115.671875 140.417969 115.878906 140.984375 116.113281 C 141.550781 116.347656 142.101562 116.609375 142.644531 116.902344 C 143.183594 117.191406 143.710938 117.507812 144.21875 117.847656 C 144.730469 118.191406 145.222656 118.554688 145.695312 118.945312 C 146.171875 119.335938 146.625 119.75 147.058594 120.183594 C 147.492188 120.621094 147.902344 121.074219 148.292969 121.550781 C 148.679688 122.027344 149.046875 122.519531 149.386719 123.03125 C 149.726562 123.542969 150.042969 124.070312 150.332031 124.613281 C 150.621094 125.152344 150.882812 125.710938 151.117188 126.277344 C 151.351562 126.847656 151.558594 127.425781 151.734375 128.011719 C 151.914062 128.601562 152.0625 129.199219 152.183594 129.800781 C 152.300781 130.40625 152.390625 131.011719 152.453125 131.625 C 152.511719 132.238281 152.542969 132.851562 152.542969 133.464844 Z M 152.542969 133.464844 " fill-opacity="1" fill-rule="nonzero"/><path fill="#4ccafc" d="M 204.132812 168.738281 C 204.132812 169.425781 204.066406 170.105469 203.933594 170.777344 C 203.800781 171.449219 203.605469 172.101562 203.34375 172.734375 C 203.082031 173.367188 202.761719 173.96875 202.378906 174.539062 C 202 175.109375 201.570312 175.636719 201.085938 176.121094 C 200.601562 176.605469 200.078125 177.039062 199.507812 177.417969 C 198.941406 177.800781 198.339844 178.121094 197.710938 178.382812 C 197.078125 178.648438 196.425781 178.84375 195.757812 178.976562 C 195.085938 179.113281 194.410156 179.179688 193.726562 179.179688 C 193.042969 179.179688 192.367188 179.113281 191.695312 178.976562 C 191.027344 178.84375 190.375 178.648438 189.742188 178.382812 C 189.113281 178.121094 188.511719 177.800781 187.945312 177.417969 C 187.375 177.039062 186.851562 176.605469 186.367188 176.121094 C 185.882812 175.636719 185.453125 175.109375 185.074219 174.539062 C 184.695312 173.96875 184.371094 173.367188 184.113281 172.734375 C 183.851562 172.101562 183.652344 171.449219 183.519531 170.777344 C 183.386719 170.105469 183.320312 169.425781 183.320312 168.738281 C 183.320312 168.054688 183.386719 167.375 183.519531 166.703125 C 183.652344 166.03125 183.851562 165.378906 184.113281 164.746094 C 184.371094 164.109375 184.695312 163.507812 185.074219 162.9375 C 185.453125 162.371094 185.882812 161.84375 186.367188 161.359375 C 186.851562 160.871094 187.375 160.441406 187.945312 160.058594 C 188.511719 159.679688 189.113281 159.355469 189.742188 159.09375 C 190.375 158.832031 191.027344 158.632812 191.695312 158.5 C 192.367188 158.367188 193.042969 158.300781 193.726562 158.300781 C 194.410156 158.300781 195.085938 158.367188 195.757812 158.5 C 196.425781 158.632812 197.078125 158.832031 197.710938 159.09375 C 198.339844 159.355469 198.941406 159.679688 199.507812 160.058594 C 200.078125 160.441406 200.601562 160.871094 201.085938 161.359375 C 201.570312 161.84375 202 162.371094 202.378906 162.9375 C 202.761719 163.507812 203.082031 164.109375 203.34375 164.746094 C 203.605469 165.378906 203.800781 166.03125 203.933594 166.703125 C 204.066406 167.375 204.132812 168.054688 204.132812 168.738281 Z M 204.132812 168.738281 " fill-opacity="1" fill-rule="nonzero"/><g clip-path="url(#0aab282c70)"><path fill="#372576" d="M 186.984375 277.191406 L 209.296875 244.578125 L 231.609375 211.96875 C 216.5 229.792969 201.394531 247.621094 186.285156 265.449219 C 168.417969 250.238281 150.550781 235.027344 132.6875 219.816406 Z M 186.984375 277.191406 " fill-opacity="1" fill-rule="nonzero"/></g><g fill="#004aad" fill-opacity="1"><g transform="translate(70.718085, 303.406215)"><g><path d="M 14.214844 -22.675781 C 14.214844 -24.371094 12.523438 -25.722656 10.832031 -25.722656 C 11.339844 -25.113281 11.507812 -24.132812 11.507812 -23.015625 L 11.507812 1.691406 C 11.507812 3.757812 9.847656 5.414062 7.785156 5.414062 C 5.71875 5.414062 4.0625 3.757812 4.0625 1.691406 L 4.0625 -7.582031 C 4.0625 -10.222656 5.449219 -11.40625 6.429688 -12.183594 C 3.214844 -12.183594 1.355469 -9.140625 1.355469 -7.445312 L 1.355469 1.691406 C 1.355469 5.246094 4.230469 8.125 7.785156 8.125 C 11.339844 8.125 14.214844 5.246094 14.214844 1.691406 L 14.214844 -0.203125 C 14.621094 -0.0664062 15.097656 0 15.570312 0 C 16.007812 0 16.078125 -0.441406 16.078125 -0.914062 L 16.078125 -1.792969 C 16.078125 -2.269531 16.007812 -2.707031 15.570312 -2.707031 C 14.824219 -2.707031 14.214844 -3.316406 14.214844 -4.0625 Z M 14.214844 -22.675781 "/></g></g></g><g fill="#004aad" fill-opacity="1"><g transform="translate(86.286977, 303.406215)"><g><path d="M 5.414062 -12.523438 C 5.414062 -14.214844 3.722656 -15.570312 2.03125 -15.570312 C 2.539062 -14.960938 2.707031 -13.980469 2.707031 -12.863281 L 2.707031 -4.0625 C 2.707031 -3.316406 2.097656 -2.707031 1.355469 -2.707031 L 0 -2.707031 C -0.441406 -2.707031 -0.507812 -2.269531 -0.507812 -1.792969 L -0.507812 -0.914062 C -0.507812 -0.441406 -0.441406 0 0 0 L 1.355469 0 C 2.371094 0 3.316406 -0.371094 4.0625 -1.015625 C 4.773438 -0.371094 5.71875 0 6.769531 0 L 8.125 0 C 8.5625 0 8.632812 -0.441406 8.632812 -0.914062 L 8.632812 -1.792969 C 8.632812 -2.269531 8.5625 -2.707031 8.125 -2.707031 L 6.769531 -2.707031 C 6.023438 -2.707031 5.414062 -3.316406 5.414062 -4.0625 Z M 2.707031 2.707031 C 2.707031 3.453125 3.316406 4.0625 4.0625 4.0625 C 4.804688 4.0625 5.414062 3.453125 5.414062 2.707031 C 5.414062 1.964844 4.804688 1.355469 4.0625 1.355469 C 3.316406 1.355469 2.707031 1.964844 2.707031 2.707031 Z M 2.707031 2.707031 "/></g></g></g><g fill="#004aad" fill-opacity="1"><g transform="translate(94.409884, 303.406215)"><g><path d="M 10.152344 0 C 11.167969 0 12.117188 -0.371094 12.863281 -1.015625 C 13.574219 -0.371094 14.519531 0 15.570312 0 C 16.007812 0 16.078125 -0.441406 16.078125 -0.914062 L 16.078125 -1.792969 C 16.078125 -2.269531 16.007812 -2.707031 15.570312 -2.707031 C 14.859375 -2.707031 14.214844 -3.316406 14.214844 -4.0625 L 14.214844 -10.492188 C 14.214844 -14.046875 11.339844 -16.921875 7.785156 -16.921875 C 4.230469 -16.921875 1.355469 -14.046875 1.355469 -10.492188 L 1.355469 -9.140625 C 1.355469 -6.328125 3.621094 -4.0625 6.429688 -4.0625 C 8.9375 -4.0625 10.898438 -5.617188 11 -8.125 C 10.085938 -6.566406 8.632812 -6.09375 7.785156 -6.09375 C 5.71875 -6.09375 4.0625 -7.75 4.0625 -9.816406 L 4.0625 -10.492188 C 4.0625 -12.558594 5.71875 -14.214844 7.785156 -14.214844 C 9.847656 -14.214844 11.507812 -12.558594 11.507812 -10.492188 L 11.507812 -4.0625 C 11.507812 -3.316406 10.898438 -2.707031 10.152344 -2.707031 L 0 -2.707031 C -0.441406 -2.707031 -0.507812 -2.269531 -0.507812 -1.792969 L -0.507812 -0.914062 C -0.507812 -0.441406 -0.441406 0 0 0 Z M 8.460938 -19.632812 C 8.460938 -18.886719 9.070312 -18.277344 9.816406 -18.277344 C 10.558594 -18.277344 11.167969 -18.886719 11.167969 -19.632812 C 11.167969 -20.375 10.558594 -20.984375 9.816406 -20.984375 C 9.070312 -20.984375 8.460938 -20.375 8.460938 -19.632812 Z M 5.078125 -19.632812 C 5.078125 -18.886719 5.6875 -18.277344 6.429688 -18.277344 C 7.175781 -18.277344 7.785156 -18.886719 7.785156 -19.632812 C 7.785156 -20.375 7.175781 -20.984375 6.429688 -20.984375 C 5.6875 -20.984375 5.078125 -20.375 5.078125 -19.632812 Z M 5.078125 -19.632812 "/></g></g></g><g fill="#004aad" fill-opacity="1"><g transform="translate(109.978776, 303.406215)"><g><path d="M 5.414062 -12.523438 C 5.414062 -14.214844 3.722656 -15.570312 2.03125 -15.570312 C 2.539062 -14.960938 2.707031 -13.980469 2.707031 -12.863281 L 2.707031 -4.0625 C 2.707031 -3.316406 2.097656 -2.707031 1.355469 -2.707031 L 0 -2.707031 C -0.441406 -2.707031 -0.507812 -2.269531 -0.507812 -1.792969 L -0.507812 -0.914062 C -0.507812 -0.441406 -0.441406 0 0 0 L 1.355469 0 C 2.371094 0 3.316406 -0.371094 4.0625 -1.015625 C 4.773438 -0.371094 5.71875 0 6.769531 0 L 8.125 0 C 8.5625 0 8.632812 -0.441406 8.632812 -0.914062 L 8.632812 -1.792969 C 8.632812 -2.269531 8.5625 -2.707031 8.125 -2.707031 L 6.769531 -2.707031 C 6.023438 -2.707031 5.414062 -3.316406 5.414062 -4.0625 Z M 4.398438 -18.277344 C 4.398438 -17.53125 5.007812 -16.921875 5.753906 -16.921875 C 6.5 -16.921875 7.109375 -17.53125 7.109375 -18.277344 C 7.109375 -19.023438 6.5 -19.632812 5.753906 -19.632812 C 5.007812 -19.632812 4.398438 -19.023438 4.398438 -18.277344 Z M 1.015625 -18.277344 C 1.015625 -17.53125 1.625 -16.921875 2.371094 -16.921875 C 3.113281 -16.921875 3.722656 -17.53125 3.722656 -18.277344 C 3.722656 -19.023438 3.113281 -19.632812 2.371094 -19.632812 C 1.625 -19.632812 1.015625 -19.023438 1.015625 -18.277344 Z M 1.015625 -18.277344 "/></g></g></g><g fill="#004aad" fill-opacity="1"><g transform="translate(118.101683, 303.406215)"><g><path d="M 14.894531 -12.523438 C 14.894531 -14.214844 13.199219 -15.570312 11.507812 -15.570312 C 12.015625 -14.960938 12.183594 -13.980469 12.183594 -12.863281 L 12.183594 -4.0625 C 12.183594 -3.316406 11.574219 -2.707031 10.832031 -2.707031 C 10.085938 -2.707031 9.476562 -3.316406 9.476562 -4.0625 L 9.476562 -12.523438 C 9.476562 -14.214844 7.785156 -15.570312 6.09375 -15.570312 C 6.601562 -14.960938 6.769531 -13.980469 6.769531 -12.863281 L 6.769531 -4.0625 C 6.769531 -3.316406 6.160156 -2.707031 5.414062 -2.707031 C 4.671875 -2.707031 4.0625 -3.316406 4.0625 -4.0625 L 4.0625 -12.523438 C 4.0625 -14.214844 2.371094 -15.570312 0.675781 -15.570312 C 1.183594 -14.960938 1.355469 -13.980469 1.355469 -12.863281 L 1.355469 -3.925781 C 1.355469 -3.25 0.710938 -2.707031 0 -2.707031 C -0.472656 -2.707031 -0.507812 -2.269531 -0.507812 -1.792969 L -0.507812 -0.878906 C -0.507812 -0.441406 -0.472656 0 0 0 C 1.015625 0 1.964844 -0.371094 2.707031 -1.015625 C 3.417969 -0.371094 4.367188 0 5.414062 0 C 6.429688 0 7.378906 -0.371094 8.125 -1.015625 C 8.835938 -0.371094 9.78125 0 10.832031 0 C 11.847656 0 12.792969 -0.371094 13.539062 -1.015625 C 14.25 -0.371094 15.164062 0 16.210938 0 C 16.652344 0 16.71875 -0.441406 16.71875 -0.878906 L 16.71875 -1.792969 C 16.71875 -2.269531 16.652344 -2.707031 16.210938 -2.707031 C 15.5 -2.707031 14.894531 -3.316406 14.894531 -4.0625 Z M 14.894531 -12.523438 "/></g></g></g><g fill="#004aad" fill-opacity="1"><g transform="translate(134.347485, 303.406215)"><g><path d="M 15.570312 0 C 16.007812 0 16.078125 -0.441406 16.078125 -0.914062 L 16.078125 -1.792969 C 16.078125 -2.269531 16.007812 -2.707031 15.570312 -2.707031 C 14.824219 -2.707031 14.214844 -3.316406 14.214844 -4.0625 L 14.214844 -9.140625 C 14.214844 -12.691406 11.339844 -15.570312 7.785156 -15.570312 C 4.230469 -15.570312 1.355469 -12.691406 1.355469 -9.140625 L 1.355469 -4.0625 C 1.355469 -3.316406 0.746094 -2.707031 0 -2.707031 C -0.472656 -2.707031 -0.507812 -2.269531 -0.507812 -1.792969 L -0.507812 -0.914062 C -0.507812 -0.441406 -0.472656 0 0 0 C 2.234375 0 4.0625 -1.828125 4.0625 -4.0625 L 4.0625 -9.140625 C 4.0625 -11.203125 5.71875 -12.863281 7.785156 -12.863281 C 9.847656 -12.863281 11.507812 -11.203125 11.507812 -9.140625 L 11.507812 -5.585938 C 11.507812 -3.585938 9.78125 -2.03125 7.785156 -2.03125 C 6.9375 -2.03125 5.484375 -2.503906 4.570312 -4.0625 C 4.671875 -1.558594 6.632812 0 9.140625 0 C 10.457031 0 11.675781 -0.507812 12.558594 -1.320312 C 13.300781 -0.507812 14.386719 0 15.570312 0 Z M 15.570312 0 "/></g></g></g><g fill="#004aad" fill-opacity="1"><g transform="translate(149.916376, 303.406215)"><g><path d="M 4.0625 -22.675781 C 4.0625 -24.371094 2.371094 -25.722656 0.675781 -25.722656 C 1.183594 -25.113281 1.355469 -24.132812 1.355469 -23.015625 L 1.355469 -4.0625 C 1.355469 -3.316406 0.746094 -2.707031 0 -2.707031 C -0.472656 -2.707031 -0.507812 -2.269531 -0.507812 -1.792969 L -0.507812 -0.914062 C -0.507812 -0.441406 -0.472656 0 0 0 C 2.234375 0 4.0625 -1.828125 4.0625 -4.0625 Z M 4.0625 -22.675781 "/></g></g></g><g fill="#004aad" fill-opacity="1"><g transform="translate(155.331643, 303.406215)"><g><path d="M 0.675781 0 C 2.371094 0 4.0625 -1.355469 4.0625 -3.046875 L 4.0625 -23.015625 C 4.0625 -24.132812 4.230469 -25.113281 4.738281 -25.722656 C 3.046875 -25.722656 1.355469 -24.371094 1.355469 -22.675781 L 1.355469 -2.707031 C 1.355469 -1.589844 1.183594 -0.609375 0.675781 0 Z M 0.675781 0 "/></g></g></g><g fill="#004aad" fill-opacity="1"><g transform="translate(160.74691, 303.406215)"><g/></g></g><g fill="#004aad" fill-opacity="1"><g transform="translate(163.454551, 303.406215)"><g><path d="M 24.371094 -12.523438 C 24.371094 -14.214844 22.675781 -15.570312 20.984375 -15.570312 C 21.492188 -14.960938 21.660156 -13.980469 21.660156 -12.863281 L 21.660156 -4.0625 C 21.660156 -3.316406 21.054688 -2.707031 20.308594 -2.707031 L 8.460938 -2.707031 C 6.023438 -2.707031 4.0625 -4.671875 4.0625 -7.109375 L 4.0625 -7.648438 C 4.0625 -10.898438 6.9375 -13.574219 10.222656 -13.878906 C 9.542969 -14.082031 8.835938 -14.214844 8.125 -14.214844 C 4.398438 -14.214844 1.355469 -11.167969 1.355469 -7.445312 L 1.355469 -7.109375 C 1.355469 -3.179688 4.535156 0 8.460938 0 L 20.308594 0 C 22.542969 0 24.371094 -1.828125 24.371094 -4.0625 Z M 12.183594 2.707031 C 12.183594 3.453125 12.792969 4.0625 13.539062 4.0625 C 14.285156 4.0625 14.894531 3.453125 14.894531 2.707031 C 14.894531 1.964844 14.285156 1.355469 13.539062 1.355469 C 12.792969 1.355469 12.183594 1.964844 12.183594 2.707031 Z M 12.183594 2.707031 "/></g></g></g><g fill="#004aad" fill-opacity="1"><g transform="translate(189.177066, 303.406215)"><g><path d="M 4.0625 -23.015625 C 4.0625 -24.132812 4.230469 -25.113281 4.738281 -25.722656 C 3.046875 -25.722656 1.355469 -24.371094 1.355469 -22.675781 L 1.355469 -4.0625 C 1.355469 -1.828125 3.179688 0 5.414062 0 C 5.855469 0 5.921875 -0.441406 5.921875 -0.914062 L 5.921875 -1.792969 C 5.921875 -2.269531 5.855469 -2.707031 5.414062 -2.707031 C 4.671875 -2.707031 4.0625 -3.316406 4.0625 -4.0625 Z M 4.0625 -23.015625 "/></g></g></g><g fill="#004aad" fill-opacity="1"><g transform="translate(194.592333, 303.406215)"><g><path d="M 5.414062 -12.523438 C 5.414062 -14.214844 3.722656 -15.570312 2.03125 -15.570312 C 2.539062 -14.960938 2.707031 -13.980469 2.707031 -12.863281 L 2.707031 -4.0625 C 2.707031 -3.316406 2.097656 -2.707031 1.355469 -2.707031 L 0 -2.707031 C -0.441406 -2.707031 -0.507812 -2.269531 -0.507812 -1.792969 L -0.507812 -0.914062 C -0.507812 -0.441406 -0.441406 0 0 0 L 1.355469 0 C 2.371094 0 3.316406 -0.371094 4.0625 -1.015625 C 4.773438 -0.371094 5.71875 0 6.769531 0 L 8.125 0 C 8.5625 0 8.632812 -0.441406 8.632812 -0.914062 L 8.632812 -1.792969 C 8.632812 -2.269531 8.5625 -2.707031 8.125 -2.707031 L 6.769531 -2.707031 C 6.023438 -2.707031 5.414062 -3.316406 5.414062 -4.0625 Z M 2.707031 2.707031 C 2.707031 3.453125 3.316406 4.0625 4.0625 4.0625 C 4.804688 4.0625 5.414062 3.453125 5.414062 2.707031 C 5.414062 1.964844 4.804688 1.355469 4.0625 1.355469 C 3.316406 1.355469 2.707031 1.964844 2.707031 2.707031 Z M 2.707031 2.707031 "/></g></g></g><g fill="#004aad" fill-opacity="1"><g transform="translate(202.715241, 303.406215)"><g><path d="M 14.894531 -12.523438 C 14.894531 -14.214844 13.199219 -15.570312 11.507812 -15.570312 C 12.015625 -14.960938 12.183594 -13.980469 12.183594 -12.863281 L 12.183594 -4.0625 C 12.183594 -3.316406 11.574219 -2.707031 10.832031 -2.707031 C 10.085938 -2.707031 9.476562 -3.316406 9.476562 -4.0625 L 9.476562 -12.523438 C 9.476562 -14.214844 7.785156 -15.570312 6.09375 -15.570312 C 6.601562 -14.960938 6.769531 -13.980469 6.769531 -12.863281 L 6.769531 -4.0625 C 6.769531 -3.316406 6.125 -2.707031 5.414062 -2.707031 C 4.671875 -2.707031 4.0625 -3.316406 4.0625 -4.0625 L 4.0625 -12.523438 C 4.0625 -14.214844 2.371094 -15.570312 0.675781 -15.570312 C 1.183594 -14.960938 1.355469 -13.980469 1.355469 -12.863281 L 1.355469 -4.0625 C 1.355469 -3.316406 0.710938 -2.707031 0 -2.707031 C -0.472656 -2.707031 -0.507812 -2.269531 -0.507812 -1.792969 L -0.507812 -0.914062 C -0.507812 -0.441406 -0.472656 0 0 0 C 1.015625 0 1.964844 -0.371094 2.707031 -1.015625 C 3.417969 -0.371094 4.367188 0 5.414062 0 C 6.429688 0 7.378906 -0.371094 8.125 -1.015625 C 8.835938 -0.371094 9.78125 0 10.832031 0 C 13.066406 0 14.894531 -1.828125 14.894531 -4.0625 Z M 8.460938 -18.277344 C 8.460938 -17.53125 9.070312 -16.921875 9.816406 -16.921875 C 10.558594 -16.921875 11.167969 -17.53125 11.167969 -18.277344 C 11.167969 -19.023438 10.558594 -19.632812 9.816406 -19.632812 C 9.070312 -19.632812 8.460938 -19.023438 8.460938 -18.277344 Z M 5.078125 -18.277344 C 5.078125 -17.53125 5.6875 -16.921875 6.429688 -16.921875 C 7.175781 -16.921875 7.785156 -17.53125 7.785156 -18.277344 C 7.785156 -19.023438 7.175781 -19.632812 6.429688 -19.632812 C 5.6875 -19.632812 5.078125 -19.023438 5.078125 -18.277344 Z M 6.769531 -20.984375 C 6.769531 -20.242188 7.378906 -19.632812 8.125 -19.632812 C 8.867188 -19.632812 9.476562 -20.242188 9.476562 -20.984375 C 9.476562 -21.730469 8.867188 -22.339844 8.125 -22.339844 C 7.378906 -22.339844 6.769531 -21.730469 6.769531 -20.984375 Z M 6.769531 -20.984375 "/></g></g></g><g fill="#004aad" fill-opacity="1"><g transform="translate(218.961042, 303.406215)"><g/></g></g><g fill="#004aad" fill-opacity="1"><g transform="translate(221.668683, 303.406215)"><g><path d="M 24.371094 -12.523438 C 24.371094 -14.214844 22.675781 -15.570312 20.984375 -15.570312 C 21.492188 -14.960938 21.660156 -13.980469 21.660156 -12.863281 L 21.660156 -4.0625 C 21.660156 -3.316406 21.054688 -2.707031 20.308594 -2.707031 L 8.460938 -2.707031 C 6.023438 -2.707031 4.0625 -4.671875 4.0625 -7.109375 L 4.0625 -7.648438 C 4.0625 -10.898438 6.9375 -13.574219 10.222656 -13.878906 C 9.542969 -14.082031 8.835938 -14.214844 8.125 -14.214844 C 4.398438 -14.214844 1.355469 -11.167969 1.355469 -7.445312 L 1.355469 -7.109375 C 1.355469 -3.179688 4.535156 0 8.460938 0 L 20.308594 0 C 22.542969 0 24.371094 -1.828125 24.371094 -4.0625 Z M 15.230469 -15.570312 C 15.230469 -14.824219 15.839844 -14.214844 16.585938 -14.214844 C 17.328125 -14.214844 17.9375 -14.824219 17.9375 -15.570312 C 17.9375 -16.3125 17.328125 -16.921875 16.585938 -16.921875 C 15.839844 -16.921875 15.230469 -16.3125 15.230469 -15.570312 Z M 11.847656 -15.570312 C 11.847656 -14.824219 12.457031 -14.214844 13.199219 -14.214844 C 13.945312 -14.214844 14.554688 -14.824219 14.554688 -15.570312 C 14.554688 -16.3125 13.945312 -16.921875 13.199219 -16.921875 C 12.457031 -16.921875 11.847656 -16.3125 11.847656 -15.570312 Z M 11.847656 -15.570312 "/></g></g></g><g fill="#004aad" fill-opacity="1"><g transform="translate(247.391198, 303.406215)"><g><path d="M 0.675781 0 C 2.371094 0 4.0625 -1.355469 4.0625 -3.046875 L 4.0625 -23.015625 C 4.0625 -24.132812 4.230469 -25.113281 4.738281 -25.722656 C 3.046875 -25.722656 1.355469 -24.371094 1.355469 -22.675781 L 1.355469 -2.707031 C 1.355469 -1.589844 1.183594 -0.609375 0.675781 0 Z M 0.675781 0 "/></g></g></g><g fill="#004aad" fill-opacity="1"><g transform="translate(252.806465, 303.406215)"><g><path d="M 6.429688 0 C 8.9375 0 10.898438 -1.558594 11 -4.0625 C 10.085938 -2.503906 8.632812 -2.03125 7.785156 -2.03125 C 5.71875 -2.03125 4.0625 -3.6875 4.0625 -5.753906 L 4.0625 -9.140625 C 4.0625 -11.203125 5.71875 -12.863281 7.785156 -12.863281 C 9.847656 -12.863281 11.507812 -11.203125 11.507812 -9.140625 L 11.507812 0.203125 C 11.507812 3.453125 8.632812 6.125 5.347656 6.429688 C 6.023438 6.632812 6.734375 6.769531 7.445312 6.769531 C 11.167969 6.769531 14.214844 3.722656 14.214844 0 L 14.214844 -0.203125 C 14.621094 -0.0664062 15.097656 0 15.570312 0 C 16.007812 0 16.078125 -0.441406 16.078125 -0.914062 L 16.078125 -1.792969 C 16.078125 -2.269531 16.007812 -2.707031 15.570312 -2.707031 C 14.859375 -2.707031 14.214844 -3.316406 14.214844 -4.0625 L 14.214844 -9.140625 C 14.214844 -12.691406 11.339844 -15.570312 7.785156 -15.570312 C 4.230469 -15.570312 1.355469 -12.691406 1.355469 -9.140625 L 1.355469 -5.078125 C 1.355469 -2.269531 3.621094 0 6.429688 0 Z M 6.429688 0 "/></g></g></g><g fill="#004aad" fill-opacity="1"><g transform="translate(268.375356, 303.406215)"><g><path d="M 15.570312 0 C 16.585938 0 17.53125 -0.371094 18.277344 -1.015625 C 18.988281 -0.371094 19.9375 0 20.984375 0 C 21.425781 0 21.492188 -0.441406 21.492188 -0.914062 L 21.492188 -1.792969 C 21.492188 -2.269531 21.425781 -2.707031 20.984375 -2.707031 C 20.242188 -2.707031 19.632812 -3.316406 19.632812 -4.0625 L 19.632812 -9.140625 C 19.632812 -12.691406 16.753906 -15.570312 13.199219 -15.570312 C 9.746094 -15.570312 6.9375 -12.863281 6.769531 -9.476562 L 4.0625 -9.476562 L 4.0625 -23.015625 C 4.0625 -24.132812 4.230469 -25.113281 4.738281 -25.722656 C 3.046875 -25.722656 1.355469 -24.371094 1.355469 -22.675781 L 1.355469 -2.707031 L 0 -2.707031 C -0.472656 -2.707031 -0.507812 -2.269531 -0.507812 -1.792969 L -0.507812 -0.914062 C -0.507812 -0.441406 -0.472656 0 0 0 Z M 4.0625 -2.707031 L 4.0625 -6.769531 L 7.445312 -6.769531 C 8.125 -5.753906 9.242188 -5.109375 10.457031 -5.109375 C 10.933594 -5.109375 11.777344 -5.3125 12.183594 -5.550781 C 10.527344 -6.023438 9.476562 -7.546875 9.476562 -9.140625 C 9.476562 -11.203125 11.136719 -12.863281 13.199219 -12.863281 C 15.265625 -12.863281 16.921875 -11.203125 16.921875 -9.140625 L 16.921875 -4.0625 C 16.921875 -3.316406 16.3125 -2.707031 15.570312 -2.707031 Z M 4.0625 -2.707031 "/></g></g></g><g fill="#004aad" fill-opacity="1"><g transform="translate(289.359515, 303.406215)"><g><path d="M 1.355469 -9.140625 C 1.355469 -6.804688 3.082031 -5.109375 5.042969 -5.109375 C 5.515625 -5.109375 6.363281 -5.3125 6.769531 -5.550781 C 5.109375 -6.023438 4.0625 -7.546875 4.0625 -9.140625 C 4.0625 -11.203125 5.71875 -12.863281 7.785156 -12.863281 C 9.207031 -12.863281 10.832031 -11.914062 11.269531 -10.152344 L 13.167969 -2.707031 L 0 -2.707031 C -0.472656 -2.707031 -0.507812 -2.269531 -0.507812 -1.792969 L -0.507812 -0.914062 C -0.507812 -0.441406 -0.472656 0 0 0 L 14.214844 0 C 14.859375 0.609375 15.773438 0.980469 16.71875 0.980469 C 17.023438 0.980469 17.296875 0.949219 17.601562 0.878906 C 16.957031 0.40625 16.515625 -0.507812 16.246094 -1.558594 L 13.980469 -10.796875 C 13.300781 -13.503906 10.761719 -15.570312 7.820312 -15.570312 C 4.230469 -15.570312 1.355469 -12.691406 1.355469 -9.140625 Z M 6.769531 -18.277344 C 6.769531 -17.53125 7.378906 -16.921875 8.125 -16.921875 C 8.867188 -16.921875 9.476562 -17.53125 9.476562 -18.277344 C 9.476562 -19.023438 8.867188 -19.632812 8.125 -19.632812 C 7.378906 -19.632812 6.769531 -19.023438 6.769531 -18.277344 Z M 6.769531 -18.277344 "/></g></g></g></svg>